# xmcd CD database file
#
# Track frame offsets:
#	150
#	13006
#	29118
#	48185
#	66241
#	82494
#	97930
#	118218
#	133103
#	148454
#	166155
#	178555
#	202251
#
# Disc length: 4440 seconds
#
# Revision: 0
# Processed by: cddbd v1.5.1PL2 Copyright (c) Steve Scherf et al.
# Submitted via: CDex 1.51
#
DISCID=c911560d
DTITLE=Rebecka Törnqvist - Melting Into Orange
DYEAR=2006
DGENRE=Jazz
TTITLE0=Wasted sunset
TTITLE1=I wanted this to be your song
TTITLE2=The poachers
TTITLE3=My pretty fingers
TTITLE4=Song formerly known as Alice
TTITLE5=Steady horse
TTITLE6=Tell on you
TTITLE7=Wit waltz
TTITLE8=Apology
TTITLE9=Cuckoo
TTITLE10=Bad advice
TTITLE11=Clean slate day
TTITLE12=Data
EXTD=YEAR: 2006
EXTT0=
EXTT1=
EXTT2=
EXTT3=
EXTT4=
EXTT5=
EXTT6=
EXTT7=
EXTT8=
EXTT9=
EXTT10=
EXTT11=
EXTT12=
PLAYORDER=
